<?xml version="1.0" standalone="no"?>
<!DOCTYPE svg PUBLIC "-//W3C//DTD SVG 20010904//EN"
 "http://www.w3.org/TR/2001/REC-SVG-20010904/DTD/svg10.dtd">
<svg version="1.0" xmlns="http://www.w3.org/2000/svg"
 width="700.000000pt" height="700.000000pt" viewBox="0 0 700.000000 700.000000"
 preserveAspectRatio="xMidYMid meet">
<metadata>
Created by potrace 1.14, written by Peter Selinger 2001-2017
</metadata>
<g transform="translate(0.000000,700.000000) scale(0.100000,-0.100000)"
fill="#000000" stroke="none">
<path d="M3329 6996 c-2 -2 -47 -6 -99 -10 -659 -43 -1338 -303 -1870 -715
-181 -140 -414 -363 -535 -512 -11 -13 -38 -47 -61 -74 -183 -226 -359 -521
-482 -810 -145 -341 -229 -677 -269 -1083 -10 -96 -10 -493 0 -587 4 -38 10
-99 13 -135 5 -54 41 -263 57 -335 127 -553 371 -1050 728 -1480 94 -113 291
-314 389 -396 35 -30 71 -60 79 -68 8 -7 49 -39 90 -70 42 -31 78 -59 81 -62
5 -6 198 -133 241 -158 13 -8 56 -32 94 -53 39 -21 77 -43 85 -48 35 -21 267
-130 285 -134 6 -1 28 -10 50 -20 53 -23 378 -128 435 -140 14 -3 66 -15 115
-26 50 -11 106 -23 125 -26 19 -3 46 -7 59 -9 13 -2 45 -7 70 -11 25 -3 57 -8
71 -10 162 -25 683 -25 842 1 13 2 45 6 72 10 425 54 918 227 1306 460 95 57
284 185 335 227 11 9 63 51 115 94 133 109 348 327 461 469 400 500 630 1012
744 1660 35 197 50 582 32 830 -47 677 -322 1375 -753 1910 -112 139 -135 165
-270 300 -445 443 -994 753 -1612 910 -118 29 -350 71 -447 79 -38 4 -86 9
-105 12 -38 6 -465 15 -471 10z"/>
</g>
</svg>
